<?xml version="1.0" encoding="iso-8859-1"?>
<!-- Generator: Adobe Illustrator 23.0.3, SVG Export Plug-In . SVG Version: 6.00 Build 0)  -->
<svg version="1.1" id="Ebene_1" xmlns="http://www.w3.org/2000/svg" xmlns:xlink="http://www.w3.org/1999/xlink" x="0px" y="0px"
	 width="89.615px" height="17.921px" viewBox="0 0 89.615 17.921" enable-background="new 0 0 89.615 17.921" xml:space="preserve">
<g>
	<path fill="#FFFFFF" d="M4.13,3.516l0.144,1.66c1.002-1.281,2.349-1.921,4.039-1.921c1.786,0,2.993,0.71,3.621,2.13
		c0.958-1.42,2.344-2.13,4.157-2.13c2.867,0,4.339,1.734,4.418,5.202v9.202H16.09V8.731c0-0.723-0.122-1.25-0.366-1.582
		c-0.244-0.331-0.688-0.497-1.333-0.497c-0.872,0-1.521,0.388-1.948,1.164L12.457,8v9.66H8.039V8.758
		c0-0.741-0.118-1.276-0.353-1.608C7.45,6.819,7.001,6.653,6.339,6.653c-0.845,0-1.49,0.388-1.935,1.164v9.842H0V3.516H4.13z"/>
	<path fill="#FFFFFF" d="M22.469,10.457c0-1.412,0.274-2.668,0.823-3.771c0.549-1.102,1.338-1.95,2.366-2.542
		c1.028-0.592,2.235-0.889,3.621-0.889c2.118,0,3.786,0.656,5.006,1.967c1.22,1.312,1.83,3.096,1.83,5.353v0.157
		c0,2.205-0.612,3.954-1.836,5.248s-2.882,1.941-4.974,1.941c-2.013,0-3.629-0.604-4.849-1.811c-1.22-1.207-1.878-2.844-1.974-4.908
		L22.469,10.457z M26.874,10.731c0,1.307,0.205,2.266,0.615,2.875c0.409,0.611,1.015,0.916,1.816,0.916
		c1.569,0,2.371-1.207,2.405-3.621v-0.444c0-2.536-0.811-3.804-2.431-3.804c-1.473,0-2.27,1.094-2.392,3.281L26.874,10.731z"/>
	<path fill="#FFFFFF" d="M42.102,3.516l0.145,1.66c0.975-1.281,2.322-1.921,4.039-1.921c1.471,0,2.572,0.44,3.299,1.32
		c0.729,0.88,1.105,2.205,1.131,3.974v9.11h-4.418V8.731c0-0.714-0.143-1.239-0.432-1.575c-0.287-0.335-0.811-0.503-1.568-0.503
		c-0.861,0-1.502,0.34-1.92,1.02v9.986h-4.406V3.516H42.102z"/>
	<path fill="#FFFFFF" d="M59.996,17.921c-2.17,0-3.926-0.647-5.268-1.941c-1.343-1.294-2.014-2.979-2.014-5.052v-0.366
		c0-1.446,0.269-2.723,0.805-3.83c0.535-1.107,1.317-1.963,2.346-2.569c1.028-0.605,2.248-0.908,3.66-0.908
		c1.986,0,3.556,0.617,4.705,1.85c1.15,1.233,1.726,2.952,1.726,5.156v1.713h-8.758c0.157,0.793,0.501,1.416,1.033,1.869
		c0.531,0.453,1.22,0.68,2.065,0.68c1.394,0,2.483-0.488,3.268-1.465l2.013,2.379c-0.549,0.759-1.326,1.362-2.333,1.811
		C62.237,17.696,61.154,17.921,59.996,17.921z M59.499,6.653c-1.29,0-2.057,0.854-2.301,2.562h4.444v-0.34
		c0.018-0.706-0.161-1.252-0.536-1.641C60.732,6.847,60.196,6.653,59.499,6.653z"/>
	<path fill="#FFFFFF" d="M72.857,0v3.516h2.327v3.059h-2.327v6.47c0,0.532,0.096,0.901,0.288,1.111
		c0.191,0.209,0.57,0.313,1.137,0.313c0.436,0,0.802-0.025,1.099-0.078v3.15c-0.793,0.252-1.621,0.379-2.483,0.379
		c-1.517,0-2.637-0.357-3.359-1.072c-0.724-0.715-1.085-1.799-1.085-3.254v-7.02h-1.804V3.516h1.804V0H72.857z"/>
	<path fill="#FFFFFF" d="M75.969,10.457c0-1.412,0.274-2.668,0.823-3.771c0.549-1.102,1.338-1.95,2.366-2.542
		c1.028-0.592,2.235-0.889,3.62-0.889c2.118,0,3.786,0.656,5.007,1.967c1.22,1.312,1.83,3.096,1.83,5.353v0.157
		c0,2.205-0.612,3.954-1.837,5.248s-2.882,1.941-4.974,1.941c-2.013,0-3.629-0.604-4.85-1.811c-1.22-1.207-1.878-2.844-1.974-4.908
		L75.969,10.457z M80.374,10.731c0,1.307,0.204,2.266,0.614,2.875c0.409,0.611,1.015,0.916,1.816,0.916
		c1.568,0,2.37-1.207,2.405-3.621v-0.444c0-2.536-0.811-3.804-2.432-3.804c-1.473,0-2.27,1.094-2.392,3.281L80.374,10.731z"/>
</g>
<g>
</g>
<g>
</g>
<g>
</g>
<g>
</g>
<g>
</g>
<g>
</g>
<g>
</g>
<g>
</g>
<g>
</g>
<g>
</g>
<g>
</g>
<g>
</g>
<g>
</g>
<g>
</g>
<g>
</g>
</svg>
