<?xml version="1.0" encoding="iso-8859-1"?>
<!-- Generator: Adobe Illustrator 23.0.3, SVG Export Plug-In . SVG Version: 6.00 Build 0)  -->
<svg version="1.1" id="Ebene_1" xmlns="http://www.w3.org/2000/svg" xmlns:xlink="http://www.w3.org/1999/xlink" x="0px" y="0px"
	 width="143.194px" height="115.683px" viewBox="0 0 143.194 115.683" enable-background="new 0 0 143.194 115.683"
	 xml:space="preserve">
<g>
	<path fill="#FFFFFF" d="M6.6,92.666l0.229,2.652c1.601-2.047,3.752-3.07,6.454-3.07c2.854,0,4.783,1.136,5.785,3.405
		c1.532-2.27,3.746-3.405,6.642-3.405c4.581,0,6.934,2.771,7.06,8.313v14.703h-7.06v-14.266c0-1.155-0.195-1.998-0.585-2.527
		c-0.39-0.528-1.1-0.793-2.13-0.793c-1.393,0-2.43,0.619-3.112,1.859l0.021,0.292v15.435h-7.059v-14.224
		c0-1.183-0.188-2.04-0.564-2.569c-0.376-0.528-1.093-0.793-2.151-0.793c-1.351,0-2.381,0.619-3.091,1.859v15.727H0V92.666H6.6z"/>
	<path fill="#FFFFFF" d="M35.903,103.757c0-2.256,0.439-4.265,1.316-6.025c0.877-1.762,2.137-3.115,3.78-4.063
		s3.572-1.421,5.786-1.421c3.383,0,6.05,1.048,8,3.144c1.949,2.096,2.924,4.947,2.924,8.553v0.25c0,3.523-0.979,6.318-2.935,8.387
		c-1.957,2.067-4.605,3.102-7.947,3.102c-3.216,0-5.799-0.965-7.749-2.893c-1.95-1.929-3-4.543-3.154-7.844L35.903,103.757z
		 M42.942,104.195c0,2.09,0.327,3.621,0.982,4.596c0.654,0.975,1.622,1.462,2.903,1.462c2.506,0,3.788-1.929,3.843-5.786v-0.709
		c0-4.053-1.295-6.078-3.885-6.078c-2.354,0-3.627,1.748-3.822,5.242L42.942,104.195z"/>
	<path fill="#FFFFFF" d="M67.274,92.666l0.229,2.652c1.56-2.047,3.711-3.07,6.454-3.07c2.353,0,4.111,0.704,5.273,2.11
		s1.765,3.521,1.807,6.349v14.558h-7.059v-14.266c0-1.141-0.23-1.98-0.689-2.516c-0.459-0.537-1.295-0.805-2.506-0.805
		c-1.378,0-2.402,0.543-3.07,1.629v15.957h-7.039V92.666H67.274z"/>
	<path fill="#FFFFFF" d="M95.867,115.683c-3.468,0-6.272-1.034-8.417-3.102c-2.145-2.068-3.217-4.759-3.217-8.072v-0.586
		c0-2.311,0.428-4.351,1.285-6.119c0.855-1.768,2.105-3.137,3.748-4.104c1.643-0.969,3.593-1.452,5.849-1.452
		c3.175,0,5.681,0.985,7.519,2.956c1.838,1.97,2.758,4.717,2.758,8.239v2.735H91.397c0.25,1.268,0.801,2.264,1.65,2.987
		c0.849,0.724,1.949,1.086,3.3,1.086c2.228,0,3.968-0.78,5.222-2.339l3.217,3.801c-0.878,1.211-2.121,2.176-3.729,2.893
		C99.449,115.324,97.719,115.683,95.867,115.683z M95.073,97.679c-2.061,0-3.286,1.365-3.676,4.094h7.102v-0.543
		c0.027-1.128-0.258-2.002-0.856-2.621S96.187,97.679,95.073,97.679z"/>
	<path fill="#FFFFFF" d="M116.419,87.048v5.618h3.718v4.888h-3.718v10.338c0,0.85,0.153,1.441,0.459,1.775
		c0.307,0.334,0.912,0.502,1.818,0.502c0.695,0,1.28-0.043,1.754-0.126v5.034c-1.268,0.403-2.59,0.605-3.969,0.605
		c-2.422,0-4.212-0.57-5.367-1.713c-1.156-1.142-1.734-2.875-1.734-5.201V97.554h-2.882v-4.888h2.882v-5.618H116.419z"/>
	<path fill="#FFFFFF" d="M121.39,103.757c0-2.256,0.439-4.265,1.316-6.025c0.877-1.762,2.137-3.115,3.779-4.063
		c1.644-0.947,3.572-1.421,5.786-1.421c3.384,0,6.05,1.048,7.999,3.144s2.924,4.947,2.924,8.553v0.25
		c0,3.523-0.979,6.318-2.934,8.387c-1.957,2.067-4.605,3.102-7.947,3.102c-3.217,0-5.8-0.965-7.749-2.893
		c-1.95-1.929-3.001-4.543-3.153-7.844L121.39,103.757z M128.429,104.195c0,2.09,0.326,3.621,0.981,4.596
		c0.654,0.975,1.622,1.462,2.903,1.462c2.506,0,3.787-1.929,3.843-5.786v-0.709c0-4.053-1.295-6.078-3.885-6.078
		c-2.354,0-3.628,1.748-3.822,5.242L128.429,104.195z"/>
</g>
<g>
	<polygon fill="#1BABEA" points="71.559,19.366 38.016,0 38.017,53.762 56.199,64.261 56.199,31.492 71.559,40.36 	"/>
</g>
<g>
	<polygon fill="#95ED2E" points="71.557,19.366 105.1,0 105.099,53.762 86.917,64.261 86.917,31.492 71.557,40.36 	"/>
</g>
<g>
</g>
<g>
</g>
<g>
</g>
<g>
</g>
<g>
</g>
<g>
</g>
<g>
</g>
<g>
</g>
<g>
</g>
<g>
</g>
<g>
</g>
<g>
</g>
<g>
</g>
<g>
</g>
<g>
</g>
</svg>
